<svg xmlns="http://www.w3.org/2000/svg" width="480" height="75" viewBox="0 0 6330 1001" fill="#ffffff">
  <path d="M2556 433c-1,2 -1,4 -3,5 -4,4 -9,8 -14,12 -25,20 -50,41 -77,59 -12,9 -25,16 -40,20 -6,2 -12,3 -18,2 -11,-1 -20,-9 -21,-21 0,-5 0,-11 1,-17 3,-16 9,-32 16,-47 7,-14 14,-27 21,-41 0,-2 1,-3 0,-5 -2,2 -4,3 -6,5 -6,6 -12,11 -18,16 -5,5 -10,9 -10,17 -8,0 -13,4 -18,9 -14,11 -27,22 -41,33 -5,4 -11,6 -17,9 -10,5 -22,6 -28,-5 -2,-5 -1,-15 2,-24 7,-18 16,-35 28,-50 8,-10 17,-21 29,-29 5,-4 11,-7 17,-9 8,-4 17,-1 24,4 6,4 8,10 8,17 0,5 0,10 0,17 3,-2 4,-3 5,-4 11,-10 22,-20 34,-30 2,-2 5,-5 8,-7 2,-1 6,-2 8,-1 2,0 5,2 7,4 -1,8 -6,14 -9,20 -9,17 -18,33 -27,50 -9,17 -16,35 -20,54 -1,6 -2,12 0,17 1,6 4,8 10,8 7,0 13,-3 19,-5 16,-8 31,-17 45,-28 23,-17 46,-35 69,-52 2,-1 3,-3 6,-4 3,-2 6,-3 10,1zm-178 -44c0,-7 -4,-10 -11,-9 -4,1 -7,2 -10,4 -6,3 -11,8 -16,12 -12,11 -21,25 -29,39 -6,11 -12,22 -15,34 -1,4 -2,8 1,12 9,-2 16,-7 23,-12 15,-12 29,-23 43,-35 11,-9 11,-9 13,-23 1,-7 1,-15 1,-22zm-112 44c-5,0 -8,1 -12,2 -13,3 -26,6 -39,9 -12,3 -24,5 -37,9 -10,3 -21,3 -32,3 -23,-1 -33,-17 -30,-36 1,-10 3,-21 5,-31 1,-6 1,-6 -1,-13 -2,-2 -5,-1 -8,1 -6,4 -12,7 -18,12 -21,18 -43,34 -63,54 -12,11 -25,23 -37,35 -6,5 -13,10 -19,15 -3,2 -5,4 -8,5 -9,4 -16,-2 -16,-11 1,-2 1,-4 2,-6 3,-14 8,-27 14,-40 9,-20 19,-40 29,-61 4,-9 9,-19 13,-28 1,-2 2,-3 4,-6 3,2 5,3 7,4 0,1 1,2 1,3 -3,6 -5,13 -8,19 -14,27 -27,53 -38,81 -4,9 -7,18 -10,27 -1,2 -1,5 -1,8 2,-1 3,-2 4,-2 10,-9 20,-18 29,-27 25,-24 51,-46 78,-67 11,-9 22,-16 34,-22 6,-3 13,-5 19,0 5,4 7,10 5,17 -1,10 -3,19 -4,29 -1,6 -2,11 -1,17 0,9 6,14 15,14 5,1 10,0 14,-1 19,-4 38,-8 58,-12 11,-3 23,-5 34,-7 5,-1 10,-2 14,1 1,1 2,3 3,5zm-327 -5c0,4 -4,5 -7,6 -10,6 -21,10 -32,15 -19,9 -37,18 -56,26 -18,9 -37,17 -55,25 -8,3 -18,5 -27,7 -4,2 -9,1 -13,0 -10,-3 -15,-10 -13,-20 1,-7 2,-14 5,-21 4,-12 8,-24 14,-36 8,-16 16,-33 24,-49 2,-3 4,-6 6,-9 3,-3 6,-3 11,2 -1,2 -2,3 -3,5 -15,29 -29,58 -40,88 -2,6 -3,12 -4,18 -1,4 -2,8 1,12 5,3 10,2 16,0 11,-4 23,-8 34,-13 34,-15 68,-30 103,-46 9,-4 18,-7 28,-11 3,-2 6,-2 8,1zm-123 -163c1,-6 4,-11 5,-16 8,-3 12,0 16,6 -2,2 -4,3 -6,4 -1,2 -2,4 -4,6 -3,5 -5,4 -11,0zm-90 168c-1,1 -3,3 -4,3 -14,1 -25,9 -36,15 -30,16 -60,32 -90,48 -13,6 -26,12 -41,15 -25,5 -47,0 -66,-18 -5,-5 -9,-9 -14,-14 -3,-3 -5,-5 -8,-8 -3,1 -6,2 -8,4 -5,3 -10,7 -15,9 -8,4 -16,6 -26,9 -7,8 -13,19 -18,30 -10,20 -19,40 -28,60 -1,2 -1,4 -3,6 -3,6 -7,7 -13,3 0,-1 -1,-2 -2,-3 1,-4 2,-7 3,-10 8,-22 15,-43 24,-65 16,-41 32,-81 48,-122 6,-15 13,-29 20,-44 1,-2 2,-5 4,-7 4,-6 6,-6 14,1 -22,39 -36,80 -52,120 3,3 4,1 5,-1 5,-5 10,-11 14,-17 19,-27 39,-52 63,-74 8,-7 15,-14 25,-18 4,-2 9,-3 14,-2 13,3 19,13 14,25 -5,12 -11,24 -20,35 -15,19 -32,35 -51,50 -1,2 -3,3 -5,4 9,11 18,20 28,29 11,10 25,10 39,8 18,-3 35,-10 51,-18 24,-12 48,-26 73,-39 13,-6 26,-13 39,-19 3,-2 6,-3 8,-3 4,-1 9,-1 12,3 1,1 2,3 2,5zm-208 -28c8,-9 14,-19 19,-30 1,-4 3,-8 0,-13 -6,2 -12,4 -16,8 -7,5 -14,11 -20,17 -9,8 -17,17 -25,26 -9,12 -18,24 -27,36 -2,1 -4,5 -5,7 4,-1 10,0 17,1 2,-1 3,-1 4,-2 19,-15 37,-32 53,-50zm-133 28c-1,2 -2,4 -3,5 -4,4 -9,8 -14,12 -25,20 -50,41 -77,59 -13,9 -26,16 -40,20 -6,2 -12,3 -18,2 -12,-1 -20,-9 -21,-21 0,-5 0,-11 1,-17 3,-16 8,-32 16,-47 6,-14 13,-27 21,-41 0,-2 1,-3 0,-5 -2,2 -4,3 -6,5 -6,6 -12,11 -18,16 -5,5 -10,9 -10,17 -8,0 -13,4 -19,9 -13,11 -26,22 -40,33 -5,4 -11,6 -17,9 -10,5 -22,6 -28,-5 -3,-5 -1,-15 2,-24 6,-18 15,-35 27,-50 9,-10 18,-21 29,-29 5,-4 12,-7 17,-9 9,-4 17,-1 25,4 5,4 7,10 8,17 0,5 0,10 0,17 2,-2 4,-3 5,-4 11,-10 22,-20 33,-30 3,-2 6,-5 9,-7 2,-1 5,-2 8,-1 2,0 4,2 7,4 -2,8 -6,14 -9,20 -9,17 -19,33 -27,50 -9,17 -16,35 -20,54 -2,6 -2,12 -1,17 2,6 5,8 11,8 7,0 13,-3 19,-5 16,-8 30,-17 44,-28 24,-17 46,-35 69,-52 2,-1 4,-3 6,-4 4,-2 7,-3 11,1zm-178 -44c0,-7 -4,-10 -12,-9 -3,1 -7,2 -10,4 -5,3 -10,8 -15,12 -12,11 -21,25 -29,39 -7,11 -12,22 -15,34 -1,4 -3,8 0,12 9,-2 17,-7 24,-12 14,-12 29,-23 43,-35 10,-9 10,-9 13,-23 1,-7 1,-15 1,-22zm-34 -372c-24,43 -48,86 -73,129 -11,20 -23,41 -34,62 -14,27 -29,55 -43,83 -23,45 -44,91 -62,138 -8,21 -16,43 -22,64 -7,26 -13,53 -18,79 -5,25 -7,51 -9,77 0,16 -1,33 4,50 1,4 2,7 4,11 3,5 5,6 12,5 2,-1 5,-1 7,-1 3,1 5,2 5,5 -10,6 -23,5 -31,-3 -7,-7 -10,-17 -12,-27 -3,-19 -3,-39 -2,-58 2,-26 6,-51 10,-76 11,-65 32,-127 59,-187 30,-67 64,-133 100,-197 21,-37 42,-73 63,-109 1,-1 1,-2 1,-4 -4,4 -8,9 -12,14 -10,11 -20,22 -30,33 -18,21 -37,41 -55,62 -22,25 -45,50 -66,75 -22,25 -43,50 -64,75 -22,27 -45,54 -66,82 -33,41 -65,83 -97,124 -11,15 -23,29 -34,44 -8,10 -15,20 -23,30 -12,15 -24,30 -39,43 -6,6 -14,8 -22,8 -5,0 -11,-6 -11,-13 0,-8 0,-16 2,-24 3,-16 7,-32 11,-48 17,-59 40,-115 64,-170 29,-68 60,-134 95,-198 1,-2 2,-5 3,-7 -1,0 -1,0 -2,1 -25,25 -50,50 -76,75 -17,17 -35,33 -53,50 -20,19 -39,38 -59,56 -24,23 -49,45 -73,67 -6,4 -10,9 -16,13 -3,3 -7,4 -10,5 0,0 0,1 1,2 -3,2 -6,5 -9,8 -1,0 -2,-1 -3,-2 0,1 -1,1 -1,1 1,3 1,5 -2,6 -2,1 -4,3 -5,6 -2,3 -5,5 -8,8 -16,15 -33,30 -50,45 -22,19 -45,38 -67,56 -19,17 -39,33 -59,49 -30,25 -61,47 -94,67 -24,15 -49,30 -76,41 -16,7 -33,12 -51,14 -11,2 -21,2 -32,-1 -23,-6 -35,-22 -40,-44 -1,-5 -1,-9 -2,-14 0,-7 0,-13 0,-20 1,-6 2,-13 3,-19 6,-37 17,-71 31,-105 13,-33 28,-64 45,-95 31,-58 68,-114 110,-165 23,-29 48,-56 75,-82 27,-25 55,-48 87,-66 16,-9 31,-17 49,-19 11,-2 21,-1 30,6 8,6 12,13 12,22 1,8 -1,16 -3,23 -6,23 -17,44 -29,64 -12,21 -25,41 -38,61 -38,58 -79,113 -122,168 -12,15 -23,30 -36,44 -23,28 -47,56 -71,84 -2,2 -5,5 -7,8 -2,3 -5,6 -3,10 0,0 0,1 -1,2 -2,1 -4,1 -6,1 -4,1 -8,-2 -8,-6 0,-4 2,-7 4,-10 5,-5 10,-10 14,-15 21,-23 42,-46 62,-71 45,-56 89,-114 130,-173 26,-36 51,-74 73,-113 10,-17 19,-34 25,-53 2,-9 4,-18 4,-27 0,-3 -1,-5 -2,-8 -1,-5 -5,-8 -10,-8 -9,-1 -17,1 -25,4 -13,5 -26,11 -38,18 -25,15 -47,32 -68,51 -16,15 -31,31 -46,46 -21,22 -40,46 -59,70 -28,36 -53,74 -76,114 -16,28 -31,57 -44,86 -8,16 -15,32 -22,48 -1,2 -2,4 -3,5 -1,3 0,7 -1,9 -5,17 -11,32 -16,49 -3,12 -5,24 -6,36 0,8 0,16 0,25 -1,9 2,19 5,28 7,16 20,25 38,26 17,0 33,-5 49,-10 28,-11 55,-25 80,-41 44,-27 86,-59 127,-92 40,-33 79,-67 118,-102 21,-18 42,-36 62,-54 21,-19 41,-37 61,-56 29,-27 58,-54 87,-81 46,-42 90,-86 133,-131 14,-15 28,-30 40,-45 8,-8 13,-18 19,-27 7,-10 15,-21 22,-31 2,-2 5,-4 6,-6 2,0 2,0 3,0 11,7 12,10 3,20 -26,33 -46,70 -66,107 -18,33 -36,66 -52,100 -19,39 -36,80 -54,120 -9,21 -18,42 -27,64 -3,9 -6,18 -10,27 -5,11 -9,23 -13,35 -2,8 -5,16 -7,24 -1,5 -4,10 -6,16 -2,6 -3,12 -4,18 -1,11 -2,22 -4,35 3,-2 5,-2 6,-4 8,-5 14,-11 20,-19 20,-24 40,-49 59,-74 44,-55 86,-112 130,-166 39,-48 79,-94 119,-141 16,-19 33,-38 49,-57 32,-36 63,-71 94,-106 17,-20 35,-40 52,-60 3,-3 5,-6 8,-9 2,-1 4,-2 5,-3 2,1 3,2 4,3 5,5 6,7 2,13z"/>
  <path d="M6329 433c-1,2 -1,4 -3,5 -4,4 -9,8 -14,12 -25,20 -50,41 -77,59 -12,9 -25,16 -40,20 -6,2 -12,3 -18,2 -11,-1 -20,-9 -21,-21 0,-5 0,-11 1,-17 3,-16 9,-32 16,-47 6,-14 14,-27 21,-41 0,-2 1,-3 0,-5 -2,2 -4,3 -6,5 -6,6 -12,11 -18,16 -5,5 -10,9 -10,17 -8,0 -13,4 -19,9 -13,11 -26,22 -40,33 -5,4 -11,6 -17,9 -10,5 -22,6 -28,-5 -2,-5 -1,-15 2,-24 7,-18 16,-35 28,-50 8,-10 17,-21 29,-29 5,-4 11,-7 17,-9 8,-4 16,-1 24,4 5,4 8,10 8,17 0,5 0,10 0,17 3,-2 4,-3 5,-4 11,-10 22,-20 33,-30 3,-2 6,-5 9,-7 2,-1 5,-2 8,-1 2,0 5,2 7,4 -2,8 -6,14 -9,20 -9,17 -19,33 -27,50 -9,17 -16,35 -20,54 -2,6 -2,12 0,17 1,6 4,8 10,8 7,0 13,-3 19,-5 16,-8 31,-17 45,-28 23,-17 46,-35 69,-52 2,-1 3,-3 5,-4 4,-2 7,-3 11,1zm-178 -44c0,-7 -4,-10 -11,-9 -4,1 -8,2 -10,4 -6,3 -11,8 -16,12 -12,11 -21,25 -29,39 -6,11 -12,22 -15,34 -1,4 -3,8 1,12 9,-2 16,-7 23,-12 14,-12 29,-23 43,-35 11,-9 11,-9 13,-23 1,-7 1,-15 1,-22zm-26 -96c-2,5 -6,8 -11,10 -4,1 -8,3 -11,5 -20,13 -38,27 -57,42 -20,15 -40,30 -59,45 -19,15 -38,30 -56,45 -16,13 -32,26 -48,40 -11,8 -22,17 -32,26 -9,6 -17,12 -26,17 -5,3 -11,6 -17,8 -3,1 -5,1 -7,2 -20,1 -32,-11 -29,-30 3,-22 12,-42 22,-62 10,-18 21,-36 33,-52 3,-4 6,-8 10,-13 4,2 7,4 9,5 0,2 0,3 0,4 -3,4 -6,8 -9,12 -7,10 -13,19 -19,29 -11,18 -21,37 -28,57 -2,8 -4,16 -5,24 -1,5 1,9 3,14 5,3 10,2 15,-1 8,-4 17,-8 24,-14 17,-13 34,-27 51,-40 24,-20 48,-40 73,-60 33,-25 66,-51 100,-76 17,-12 34,-24 51,-37 4,-2 9,-5 12,-7 5,0 9,2 11,7zm-355 134c-1,2 -2,4 -4,5 -6,2 -13,4 -20,5 -24,5 -49,9 -73,12 -14,2 -28,3 -41,3 -19,-1 -39,-2 -57,-6 -4,-1 -7,-1 -10,-1 -4,6 -7,11 -10,16 -9,12 -20,23 -31,32 -10,8 -21,15 -32,20 -8,4 -17,6 -26,6 -16,-2 -24,-13 -22,-28 1,-9 4,-17 8,-25 12,-24 26,-45 42,-66 11,-14 22,-28 35,-41 2,-2 5,-5 8,-6 1,-1 4,-1 6,0 3,1 5,3 4,7 -8,2 -12,10 -17,16 -25,30 -48,60 -65,95 -3,6 -5,13 -7,19 -1,5 -1,11 2,16 7,3 13,2 19,0 15,-6 28,-14 40,-24 8,-7 15,-15 23,-23 2,-2 4,-5 6,-8 2,-3 3,-6 4,-8 -1,-5 -5,-5 -7,-7 -4,-3 -9,-6 -12,-10 -3,-3 -3,-8 -1,-12 2,-3 5,-4 9,-4 11,0 18,5 22,14 2,3 3,7 4,10 5,4 13,4 19,5 14,1 29,2 43,3 18,0 36,-2 53,-4 22,-3 44,-6 65,-11 5,-1 9,-2 13,-3 4,-1 7,0 10,3zm-332 4c0,5 -4,6 -6,8 -14,10 -27,19 -41,28 -12,8 -25,16 -38,25 -25,17 -51,33 -79,48 -19,10 -39,18 -60,22 -7,1 -13,0 -19,-2 -13,-3 -21,-12 -26,-24 -1,-6 -2,-11 -3,-17 -1,-18 -1,-37 4,-55 5,-21 10,-43 16,-64 14,-47 31,-93 50,-138 17,-39 35,-78 55,-116 5,-10 7,-21 15,-29 1,-8 5,-14 9,-21 3,-6 5,-13 8,-20 3,-10 7,-19 11,-30 3,1 5,1 8,2 -1,3 0,6 -1,9 -3,8 -7,16 -11,24 -5,9 -8,19 -11,28 -3,7 -7,14 -10,21 -10,23 -20,45 -31,68 -7,13 -12,28 -18,42 -14,34 -28,68 -40,102 -15,39 -27,79 -35,120 -4,16 -6,33 -6,51 0,9 2,17 5,26 4,9 11,14 21,14 6,0 13,-1 19,-3 21,-6 39,-16 58,-26 48,-28 94,-59 140,-89 3,-2 6,-4 9,-6 3,-1 6,-1 7,2zm-209 -138c-2,5 -6,8 -11,10 -4,1 -8,3 -11,5 -20,13 -39,27 -57,42 -20,15 -40,30 -59,45 -19,15 -38,30 -56,45 -17,13 -33,26 -49,40 -10,8 -21,17 -32,26 -8,6 -16,12 -25,17 -5,3 -12,6 -18,8 -2,1 -4,1 -7,2 -19,1 -31,-11 -28,-30 3,-22 11,-42 22,-62 10,-18 20,-36 33,-52 3,-4 6,-8 10,-13 4,2 7,4 9,5 0,2 0,3 0,4 -3,4 -7,8 -9,12 -7,10 -13,19 -19,29 -11,18 -21,37 -28,57 -3,8 -4,16 -5,24 -1,5 1,9 2,14 6,3 11,2 16,-1 8,-4 17,-8 24,-14 17,-13 34,-27 51,-40 24,-20 48,-40 72,-60 33,-25 67,-51 100,-76 17,-12 35,-24 52,-37 4,-2 8,-5 12,-7 5,0 8,2 11,7zm-351 140c0,2 -1,4 -2,5 -5,4 -10,8 -14,12 -26,20 -51,41 -78,59 -12,9 -25,16 -40,20 -6,2 -12,3 -18,2 -11,-1 -19,-9 -20,-21 -1,-5 -1,-11 0,-17 3,-16 9,-32 16,-47 7,-14 14,-27 21,-41 1,-2 1,-3 1,-5 -2,2 -4,3 -6,5 -7,6 -13,11 -19,16 -5,5 -10,9 -9,17 -9,0 -14,4 -19,9 -13,11 -27,22 -41,33 -5,4 -11,6 -17,9 -10,5 -22,6 -27,-5 -3,-5 -1,-15 1,-24 7,-18 16,-35 28,-50 9,-10 18,-21 29,-29 5,-4 11,-7 17,-9 9,-4 17,-1 24,4 6,4 8,10 8,17 1,5 1,10 1,17 2,-2 3,-3 5,-4 11,-10 22,-20 33,-30 3,-2 5,-5 8,-7 3,-1 6,-2 8,-1 3,0 5,2 7,4 -1,8 -5,14 -9,20 -9,17 -18,33 -27,50 -9,17 -15,35 -20,54 -1,6 -1,12 0,17 2,6 5,8 11,8 6,0 12,-3 18,-5 16,-8 31,-17 45,-28 23,-17 46,-35 69,-52 2,-1 4,-3 6,-4 3,-2 7,-3 10,1zm-178 -44c0,-7 -4,-10 -11,-9 -3,1 -7,2 -10,4 -5,3 -10,8 -15,12 -13,11 -21,25 -30,39 -6,11 -12,22 -15,34 -1,4 -2,8 1,12 9,-2 17,-7 24,-12 14,-12 28,-23 42,-35 11,-9 11,-9 13,-23 2,-7 2,-15 1,-22zm-105 44c0,1 -3,3 -4,3 -14,1 -25,9 -36,15 -30,16 -59,32 -89,48 -13,6 -27,12 -42,15 -25,5 -47,0 -66,-18 -5,-5 -9,-9 -14,-14 -2,-3 -5,-5 -8,-8 -3,1 -5,2 -8,4 -5,3 -10,7 -15,9 -8,4 -16,6 -26,9 -7,8 -13,19 -18,30 -10,20 -18,40 -28,60 -1,2 -1,4 -2,6 -3,6 -8,7 -13,3 -1,-1 -2,-2 -3,-3 1,-4 2,-7 3,-10 8,-22 16,-43 24,-65 16,-41 32,-81 48,-122 6,-15 13,-29 20,-44 1,-2 2,-5 4,-7 4,-6 6,-6 14,1 -22,39 -36,80 -52,120 3,3 5,1 6,-1 4,-5 9,-11 13,-17 19,-27 39,-52 63,-74 8,-7 16,-14 25,-18 5,-2 9,-3 14,-2 13,3 19,13 14,25 -4,12 -11,24 -19,35 -15,19 -33,35 -52,50 -1,2 -3,3 -4,4 9,11 17,20 27,29 12,10 25,10 39,8 18,-3 35,-10 51,-18 24,-12 49,-26 73,-39 13,-6 26,-13 39,-19 3,-2 6,-3 9,-3 4,-1 8,-1 11,3 1,1 2,3 2,5zm-208 -28c8,-9 14,-19 19,-30 2,-4 3,-8 0,-13 -6,2 -11,4 -16,8 -7,5 -14,11 -20,17 -8,8 -17,17 -24,26 -10,12 -19,24 -28,36 -2,1 -4,5 -5,7 4,-1 11,0 17,1 2,-1 3,-1 4,-2 19,-15 37,-32 53,-50zm-131 23c-11,8 -23,16 -34,24 -21,15 -42,31 -64,47 -10,7 -21,14 -32,21 -10,6 -20,9 -32,8 -8,0 -13,-4 -16,-12 -3,-6 -3,-12 -3,-19 4,-22 11,-44 20,-64 8,-17 16,-35 25,-52 2,-4 4,-8 6,-12 -3,-2 -4,1 -6,2 -7,7 -14,14 -21,21 -26,26 -51,51 -76,76 -8,7 -15,14 -23,20 -5,4 -10,7 -16,9 -12,4 -21,-3 -21,-15 -1,-4 0,-9 1,-13 5,-25 14,-49 23,-72 3,-8 7,-16 10,-23 1,-2 2,-4 4,-5 1,-1 3,-2 4,-2 2,1 3,3 4,4 0,2 0,4 -1,6 -5,14 -11,28 -15,41 -7,19 -13,37 -17,57 0,4 -2,8 1,13 4,-1 7,-2 10,-4 5,-4 9,-7 14,-11 18,-18 37,-35 55,-53 23,-22 45,-45 68,-68 3,-4 8,-7 11,-10 2,0 3,0 3,0 9,4 10,6 8,14 -3,8 -6,16 -10,23 -14,29 -27,58 -38,88 -3,10 -6,22 -8,33 -1,6 -2,13 4,19 6,0 12,-3 17,-5 14,-7 27,-17 40,-26 25,-17 50,-35 75,-53 6,-4 13,-8 20,-11 4,-3 6,-2 10,4zm-324 7c-3,4 -8,5 -12,7 -15,6 -30,12 -46,18 -12,5 -25,10 -37,15 -5,2 -10,3 -16,4 -3,0 -6,0 -9,-1 -4,-2 -6,-5 -7,-10 0,-6 1,-13 3,-19 3,-11 7,-22 9,-34 0,-5 0,-9 -5,-12 -4,-1 -9,1 -13,3 -10,6 -21,11 -30,17 -33,20 -64,44 -94,67 -5,3 -9,7 -14,9 -3,2 -7,3 -11,4 -6,1 -11,-3 -10,-9 0,-4 1,-8 2,-12 5,-16 10,-31 16,-47 9,-25 18,-51 28,-76 16,-41 32,-83 48,-125 13,-31 25,-62 38,-92 8,-19 17,-37 25,-56 5,-10 9,-20 14,-30 1,-4 2,-8 1,-12 -2,-7 2,-12 7,-16 2,-1 5,-1 8,0 3,2 4,4 4,7 -1,4 -2,7 -3,10 -6,13 -12,27 -18,40 -15,36 -31,72 -46,107 -7,15 -13,29 -19,43 -6,15 -12,31 -18,47 -13,35 -26,70 -39,105 -6,16 -12,33 -18,49 -4,13 -9,25 -13,37 -2,6 -3,11 -4,19 13,-9 24,-18 35,-26 26,-18 51,-37 78,-53 9,-5 17,-9 26,-13 5,-3 11,-5 16,-5 12,-1 22,4 21,19 0,10 -2,20 -5,30 -2,7 -5,15 -5,24 6,1 11,-1 15,-3 24,-9 48,-18 72,-27 6,-3 13,-5 19,-7 1,0 3,0 5,1 0,0 1,1 2,3zm-36 211c-1,0 -3,0 -4,-1 -18,-3 -36,-6 -54,-9 -43,-7 -86,-14 -129,-21 -10,-2 -20,-4 -30,-6 -13,-2 -26,-3 -39,-5 -20,-3 -41,-6 -61,-9 -16,-3 -31,-5 -47,-7 -13,-2 -27,-4 -40,-5 -17,-2 -35,-4 -52,-6 -10,-1 -20,-2 -30,-3 -13,-1 -25,-2 -37,-3 -14,-1 -27,-3 -41,-4 -12,0 -24,-1 -36,-2 -30,0 -59,-1 -89,-2 -17,0 -33,0 -50,-1 -6,0 -11,2 -17,5 -19,12 -38,24 -58,35 -14,8 -28,16 -42,23 -10,6 -21,11 -32,16 -15,7 -29,14 -45,20 -21,9 -43,18 -65,25 -22,7 -44,13 -66,17 -10,2 -20,3 -30,5 -1,0 -3,0 -4,1 -9,0 -17,0 -25,0 -1,-1 -2,-1 -3,-1 -7,-2 -14,-2 -20,-4 -11,-3 -21,-7 -29,-16 -4,-5 -5,-10 -8,-16 0,0 0,-1 0,-1 1,-3 1,-5 2,-8 3,-10 9,-17 16,-24 11,-10 23,-17 36,-23 15,-7 31,-14 48,-20 36,-12 72,-21 109,-28 27,-5 55,-9 82,-13 18,-2 37,-4 55,-5 22,-2 45,-3 67,-4 8,0 14,-4 20,-8 33,-24 67,-48 99,-73 27,-21 54,-43 80,-65 23,-20 45,-41 66,-62 40,-38 77,-79 110,-123 14,-19 27,-40 37,-62 6,-13 11,-27 12,-42 1,-19 -5,-35 -19,-48 -13,-12 -29,-18 -45,-23 -17,-5 -34,-8 -52,-9 -11,-1 -23,-2 -35,-2 -14,0 -28,2 -42,3 -19,3 -38,8 -58,12 -7,1 -15,4 -22,7 -18,6 -36,13 -53,20 -7,2 -13,6 -19,9 -23,12 -45,25 -66,40 -13,9 -25,19 -36,31 -5,6 -9,13 -13,19 -4,9 -5,19 2,28 0,0 0,1 1,1 0,1 0,3 -1,4 0,1 -2,1 -3,0 -10,-3 -14,-12 -15,-21 -1,-9 2,-16 6,-24 8,-13 19,-23 30,-33 32,-26 66,-47 104,-63 13,-7 28,-12 42,-17 29,-11 59,-19 90,-23 18,-2 36,-4 54,-4 32,-1 64,3 94,14 15,6 30,14 43,25 20,19 28,42 25,70 -3,21 -11,40 -21,59 -14,28 -32,53 -51,77 -20,24 -40,47 -62,69 -16,17 -33,34 -50,50 -56,53 -116,101 -180,146 -7,5 -14,10 -22,15 2,1 4,1 5,1 27,0 54,0 81,1 24,1 49,3 74,5 12,0 25,1 38,2 24,3 49,5 73,8 8,3 17,2 25,3 19,3 38,5 57,8 26,4 51,8 77,12 18,3 37,6 55,9 21,4 41,7 62,10 21,4 43,8 65,12 25,4 50,9 74,14 7,1 13,2 19,4 4,1 8,3 12,6 2,1 3,4 1,8zm-792 -80c0,0 0,-1 0,-1 -2,0 -3,-1 -5,0 -14,0 -28,1 -43,2 -5,1 -11,1 -16,2 -20,2 -40,4 -60,7 -19,2 -37,5 -55,8 -18,4 -35,8 -53,12 -16,4 -32,9 -48,14 -12,3 -23,9 -34,12 -8,3 -16,7 -23,11 -10,6 -19,13 -28,20 -1,1 -2,2 -2,3 -2,2 -3,4 -4,7 -5,11 -5,22 8,28 8,3 17,4 25,4 21,1 42,-3 63,-7 31,-6 61,-16 90,-27 24,-10 47,-20 70,-31 12,-5 25,-11 36,-18 22,-13 45,-26 67,-38 4,-3 8,-5 12,-8z"/>
  <path d="M4222 942l-34 -101 19 0 24 77 25 -77 17 0 -34 101 0 56 -17 0 0 -56zm-238 -15l0 71 -18 0 0 -157 18 0 0 71 39 0 0 -71 17 0 0 157 -17 0 0 -71 -39 0 0 0zm-203 -86c25,0 36,14 36,38l0 19c0,25 -12,38 -37,38l-16 0 0 62 -17 0 0 -157 34 0zm-1 79c13,0 19,-6 19,-21l0 -21c0,-14 -5,-21 -18,-21l-17 0 0 63 16 0 0 0zm-246 47l-6 31 -17 0 31 -157 25 0 30 157 -17 0 -6 -31 -40 0zm2 -15l35 0 -18 -92 -17 92zm-209 -111c25,0 35,12 35,36l0 12c0,18 -6,29 -20,33 15,4 20,16 20,33l0 25c0,7 1,13 3,18l-17 0c-2,-4 -3,-8 -3,-19l0 -25c0,-17 -9,-23 -23,-23l-13 0 0 67 -17 0 0 -157 35 0zm-5 74c14,0 23,-5 23,-22l0 -15c0,-14 -5,-21 -19,-21l-17 0 0 58 13 0zm-182 -36l0 13 -17 0 0 -14c0,-14 -6,-23 -19,-23 -12,0 -18,9 -18,23l0 83c0,14 6,23 18,23 13,0 19,-9 19,-23l0 -31 -16 0 0 -16 33 0 0 46c0,24 -12,40 -36,40 -24,0 -35,-16 -35,-40l0 -81c0,-24 11,-40 35,-40 24,0 36,16 36,40zm-295 0c0,-24 12,-40 36,-40 25,0 37,16 37,40l0 81c0,24 -12,40 -37,40 -24,0 -36,-16 -36,-40l0 -81zm18 82c0,15 6,23 18,23 13,0 19,-8 19,-23l0 -83c0,-14 -6,-23 -19,-23 -12,0 -18,9 -18,23l0 83zm-211 37l0 -141 -29 0 0 -16 76 0 0 16 -29 0 0 141 -18 0zm-247 -119c0,-24 12,-40 36,-40 24,0 36,16 36,40l0 81c0,24 -12,40 -36,40 -24,0 -36,-16 -36,-40l0 -81zm17 82c0,15 6,23 19,23 13,0 19,-8 19,-23l0 -83c0,-14 -6,-23 -19,-23 -13,0 -19,9 -19,23l0 83zm-226 -34l0 71 -17 0 0 -157 17 0 0 71 39 0 0 -71 18 0 0 157 -18 0 0 -71 -39 0 0 0zm-203 -86c25,0 36,14 36,38l0 19c0,25 -12,38 -37,38l-15 0 0 62 -18 0 0 -157 34 0zm-1 79c13,0 20,-6 20,-21l0 -21c0,-14 -6,-21 -19,-21l-16 0 0 63 15 0 0 0z"/>
</svg>